<svg id="Layer_1" data-name="Layer 1" xmlns="http://www.w3.org/2000/svg" viewBox="0 0 1920 1080"><defs><style>.cls-1,.cls-2{fill:#231f20;}.cls-1{fill-rule:evenodd;}</style></defs><path class="cls-1" d="M314.47,418.47V663c-16.57,0-31.81.17-47-.22-1.73,0-4.38-3-4.84-5-.83-3.65-.35-7.61-.35-11.45q0-190.3-.21-380.63a258.31,258.31,0,0,0-4.4-45.65c-4.27-23.22-14.37-30.95-38.09-32-11.38-.5-11.39-.5-9.22-14.8,24.54,1.3,49.48,1.76,74.2,4.3,13.65,1.4,21,12.77,23.52,25.16,3.22,15.59,5.56,31.62,5.83,47.51.82,47.74.44,95.49.53,143.25v11.2L317,405.9c6.46-7.81,13-15.54,19.37-23.46Q395,308.94,453.55,235.35c7.38-9.25,14.6-18.62,22.23-27.66,24.25-28.7,55.46-38.06,92-32.24,3.92,14,3.26,15.29-10.65,16.74-22.87,2.41-40.89,14-55.3,30.79-22.2,25.92-43.55,52.58-65,79.14-21.22,26.28-41.92,53-63.31,79.13-5,6.06-4.66,10,0,16,41.21,53.13,81.66,106.84,123.33,159.6,17.2,21.78,35.54,43,55.8,61.89,13.14,12.26,30.79,19.65,46.14,29.65,2.79,1.81,6,5.72,5.86,8.53-.14,3-3.42,7.6-6.26,8.49-27.15,8.4-53.61,6.79-78.69-7.48-32.51-18.5-56.5-46.07-78.84-75.23q-59.73-78-119.16-156.19C320.07,424.43,318.18,422.61,314.47,418.47Z"/><path class="cls-1" d="M1144.86,663c-13.87,0-26.72.4-39.49-.36-2.33-.15-6.16-5-6.26-7.78-.64-15.67-.29-31.37-.37-47-.29-54.71.09-109.44-1.26-164.12-.59-23.68-7.44-46.2-26.56-62.64-15.46-13.3-38.45-16.2-55.48-5.1-10.6,6.91-19.65,16.51-28.37,25.86-2.78,3-3.15,9-3.16,13.67q-.3,117.12-.21,234.24c0,4.08-.36,8.16-.57,12.76H936.71v-13c0-73.2.27-146.4-.2-219.6a223.62,223.62,0,0,0-5-45.5c-4-18.31-13.31-24.49-32-25.09-3.41-.11-6.81-.4-10.67-.64v-9.48c22,0,43.48-.94,64.86.33,14.51.87,22.33,12.65,29,25.19,7.06-5.87,13-11.56,19.67-16.25,56.14-39.64,123.91-13.62,138.23,53.4a216.7,216.7,0,0,1,4.7,43.53c.49,65.88.23,131.76.2,197.64C1145.48,655.81,1145.15,658.55,1144.86,663Z"/><path class="cls-1" d="M801.42,632.79c-3.7,5.26-5.61,9.22-8.58,12-32.9,31.11-85.85,34.56-118.42,6.67-22.86-19.58-31.44-47-32.49-75.71-1.8-49.08-1.06-98.25-2.09-147.34A249.77,249.77,0,0,0,635,384c-3.41-16.65-12.22-23.34-29.31-24.37-8-.49-9.71-3.68-6.58-12.84,19.69.9,40.16.88,60.38,3.12,13.71,1.52,21.09,12.53,23,25.28A390.46,390.46,0,0,1,686.93,427c.6,41.12,0,82.26.24,123.38.14,23.21,3.38,45.76,16,66.11,16.16,26,48.9,32.93,73.36,14.53a121.77,121.77,0,0,0,22.13-22c3-3.83,3.54-10.35,3.56-15.65.21-77.73.32-155.45-.07-233.17-.05-9.88,2.38-13.89,12.67-12.93,8.63.8,17.41.34,26.12.05,5.84-.2,8.34,2.25,8.08,8-.11,2.42.08,4.88.08,7.31q0,143.25-.18,286.49c0,4.56-2.64,13-3.92,13-8.41-.17-18.2,5.31-25.07-4.22C814.71,650.65,809.29,643.45,801.42,632.79Z"/><path class="cls-1" d="M1173.65,351.82V339.47c22.29,1.52,44.4.88,65.57,5,19.69,3.89,31.57,20.18,38.25,38.46,11.57,31.7,21.91,63.86,32.62,95.89S1331.3,543,1342,575c.39,1.19,1.47,2.16,3.64,5.24,2.19-7.15,3.91-12.53,5.47-18q28.34-98.34,56.64-196.7c5.85-20.31,7.14-21,30.15-16.77-9.25,32.15-18.41,64.22-27.73,96.24-23.16,79.55-46.81,159-69.34,238.67-6.51,23-14.35,45-28.11,64.67-15.74,22.54-38.64,26.87-63.76,24.69-2-.18-4.52-5.66-5.15-9-.83-4.31-.82-8.86,5.86-10,8.49-1.46,17.44-2.73,25-6.49,20.12-10,29.39-28.79,36.37-48.94.11-.31,0-.72.2-1,10.27-20.61,4-40.18-2.73-60.28Q1269.55,521,1231.73,404.2C1222.86,377,1208.6,363.55,1173.65,351.82Z"/><path class="cls-1" d="M1600.68,371.27V347.4c9.78,0,19-.2,28.26.07,6.76.21,9.44-2.61,9-9.35-.39-5.89.51-11.91-.25-17.75-3.12-24.13,3.62-44.76,19.14-63.56,10-12.08,10.42-13.37,28-9.32v56.89c0,11.51.28,23-.1,34.5-.21,6.45,2.39,8.64,8.54,8.58,14.63-.18,29.31.68,43.89-.19,10.37-.63,13.83,3.12,12.51,12.92-.45,3.39-.07,6.92-.07,12.36H1711c-26.1,0-26.1,0-26.1,26.17,0,59.94-.13,119.88.09,179.8,0,10.4.49,21,2.41,31.18,5.74,30.51,28.68,42.8,57.73,31.46,6.1-2.38,11.88-5.53,18.49-8.64,1.62,3.88,3.05,7.33,4.42,10.63-28.14,30.65-79.74,36.19-106.94,11.47-19.21-17.45-22.81-41.07-23-65-.57-67.6-.23-135.2-.25-202.8,0-14.22,0-14.2-14.23-14.25q-9.93,0-19.86-.2A14.93,14.93,0,0,1,1600.68,371.27Z"/><path class="cls-1" d="M1503,663v-15.3c0-71.78.27-143.56-.24-215.34a237.38,237.38,0,0,0-5.08-46.55c-4.16-19.89-12.64-25.74-32.88-26.55-1.73-.08-3.89.56-5.13-.24-2.19-1.44-5.21-3.69-5.27-5.69s3.22-5.55,5-5.56c19.5-.11,39.07-.52,58.48.95,14.24,1.09,23.88,10.47,26.52,24.42,2.78,14.63,4.83,29.64,4.93,44.49.51,78,.18,156.12.47,234.17,0,8.36-1.92,12-11,11.38C1527.44,662.46,1516,663,1503,663Z"/><path class="cls-1" d="M1532.08,268c-2.25,9.16-3.33,16-5.65,22.46-3.16,8.74-9.52,14.45-19.18,15.29-10,.88-17.76-3.2-22.56-11.86-9.14-16.52-8.78-33.45.5-49.59,7.74-13.49,28.25-14.38,36.84-1.26C1527.1,250.77,1529.18,260.5,1532.08,268Z"/><path class="cls-2" d="M249,810.26h23.73c9.2,0,18.65,4.21,18.65,15.3,0,6.88-4.29,11.44-10.57,13.33v.17a14.48,14.48,0,0,1,13.15,14.7c0,13.24-11.52,17.37-23,17.37H249ZM259.79,835h9.89c7.22,0,10.83-3.09,10.83-7.65,0-5.25-3.61-7.82-11.78-7.82h-8.94Zm0,26.82h10c5.58,0,13.32-.94,13.32-8.94,0-6.36-4.12-8.6-12.89-8.6H259.79Z"/><path class="cls-2" d="M322.64,810.26H332l26.22,60.87H345.85l-5.67-13.93H313.79l-5.51,13.93H296.16Zm13.76,37.66L327,823.16l-9.54,24.76Z"/><path class="cls-2" d="M363.31,810.26h10.83v51.07H400v9.8H363.31Z"/><path class="cls-2" d="M406,810.26h10.83v60.87H406Z"/><path class="cls-2" d="M428.39,810.26h14.36l29.48,45.22h.17V810.26h10.84v60.87H469.48l-30.09-46.68h-.17v46.68H428.39Z"/><path class="cls-2" d="M495.1,810.26h40.32v9.8H505.94v15h27.94v9.8H505.94v16.51h31v9.8H495.1Z"/><path class="cls-2" d="M575.75,823.33c-2.33-3.27-6.45-4.81-10.66-4.81-5,0-10,2.23-10,7.82,0,12.2,28.89,5.24,28.89,26.91,0,13.06-10.32,19.43-22.27,19.43-7.56,0-15-2.33-19.94-8.26l8.17-7.91a14.35,14.35,0,0,0,12,6.37c5,0,10.66-2.76,10.66-8.34,0-13.33-28.88-5.68-28.88-27.43,0-12.55,11.17-18.4,22.43-18.4,6.36,0,12.73,1.81,17.45,6.28Z"/><path class="cls-2" d="M593.54,810.26h40.32v9.8H604.38v15h27.93v9.8H604.38v16.51h31v9.8H593.54Z"/><path class="cls-2" d="M710.64,856.77l13.15,14.36H710.46l-6.44-7c-4.9,5.76-10.23,8.52-18,8.52-10.75,0-20.63-6.28-20.63-17.89,0-8.16,5.84-14.27,13.15-17.1-3.87-4.3-7-8-7-14,0-10,8.25-15,17.45-15s17.19,4.48,17.19,14.45c0,7.48-6.1,12.63-12.12,15.73l9.8,10.57,6.79-10.31h12.12Zm-25.54-13c-4,2.41-8.34,5.16-8.34,10.4a9.37,9.37,0,0,0,9.63,9.2c4.73,0,8.08-3,11.18-6Zm-3.18-19.69c0,3.18,3.1,6.36,5.76,8.86,3.53-1.89,8.26-4.82,8.26-9.29,0-3.26-3-5.67-6.71-5.67C685.28,818,681.92,820.49,681.92,824.1Z"/><path class="cls-2" d="M753.54,810.26h10.83v60.87H753.54Z"/><path class="cls-2" d="M776,810.26h14.36l29.48,45.22H820V810.26h10.84v60.87H817.07L787,824.45h-.17v46.68H776Z"/><path class="cls-2" d="M842.69,810.26h24c16,0,31,9.8,31,30.44,0,20.8-17.63,30.43-32.24,30.43h-22.7Zm18.92,51.07c13.58,0,24.67-5.85,24.67-20.63s-9.63-20.64-22.87-20.64h-9.88v41.27Z"/><path class="cls-2" d="M935.11,808.71c19-.34,32.41,12.38,32.41,31.9,0,19-13.41,31.72-32.41,32.07C916.37,872.68,903,860,903,841,903,821.44,916.37,808.71,935.11,808.71Zm.09,54.17c12.64,0,21-9.63,21-22.61,0-12.13-8.34-21.75-21-21.75s-20.89,9.62-20.89,21.75C914.31,853.25,922.65,862.88,935.2,862.88Z"/><path class="cls-2" d="M976.12,810.26h14.36L1020,855.48h.17V810.26H1031v60.87h-13.75l-30.09-46.68H987v46.68H976.12Z"/><path class="cls-2" d="M1042.84,810.26h40.32v9.8h-29.49v15h27.94v9.8h-27.94v16.51h31v9.8h-41.87Z"/><path class="cls-2" d="M1123.48,823.33c-2.32-3.27-6.45-4.81-10.66-4.81-5,0-10,2.23-10,7.82,0,12.2,28.88,5.24,28.88,26.91,0,13.06-10.31,19.43-22.26,19.43-7.57,0-15-2.33-20-8.26l8.17-7.91a14.35,14.35,0,0,0,12,6.37c5,0,10.66-2.76,10.66-8.34,0-13.33-28.88-5.68-28.88-27.43,0-12.55,11.18-18.4,22.44-18.4,6.36,0,12.72,1.81,17.45,6.28Z"/><path class="cls-2" d="M1141,810.26h10.83v60.87H1141Z"/><path class="cls-2" d="M1183.15,810.26h9.37l26.22,60.87h-12.38l-5.68-13.93h-26.39l-5.5,13.93h-12.12Zm13.75,37.66-9.37-24.76L1178,847.92Z"/><path class="cls-2" d="M1223.81,810.26h14.36l29.49,45.22h.17V810.26h10.83v60.87H1264.9l-30.08-46.68h-.18v46.68h-10.83Z"/><path class="cls-2" d="M1344.08,823.33c-2.32-3.27-6.44-4.81-10.66-4.81-5,0-10,2.23-10,7.82,0,12.2,28.89,5.24,28.89,26.91,0,13.06-10.32,19.43-22.27,19.43-7.56,0-15-2.33-19.94-8.26l8.16-7.91a14.39,14.39,0,0,0,12,6.37c5,0,10.66-2.76,10.66-8.34,0-13.33-28.88-5.68-28.88-27.43,0-12.55,11.17-18.4,22.43-18.4,6.36,0,12.73,1.81,17.45,6.28Z"/><path class="cls-2" d="M1361.88,810.26h20.46c11.78,0,22.44,4.13,22.44,17.62,0,15.31-11.43,18.06-24.33,18.06h-7.73v25.19h-10.84Zm17.37,26.39c6.19,0,14.18-.34,14.18-8.59,0-7.48-7.13-8.51-13-8.51h-7.73v17.1Z"/><path class="cls-2" d="M1412.69,810.26H1453v9.8h-29.48v15h27.94v9.8h-27.94v16.51h31v9.8h-41.87Z"/><path class="cls-2" d="M1505.28,824.53c-4.47-4.73-8.59-6-12.81-6-12.55,0-20.89,9.62-20.89,21.75,0,13,8.34,22.61,20.89,22.61,4.91,0,9.63-2.24,13.67-7.4l8.94,6.36c-5.5,7.57-13.75,10.84-22.69,10.84-18.74,0-32.15-12.73-32.15-31.73,0-19.51,13.41-32.24,32.15-32.24,8.25,0,15.3,2.67,21.32,9.63Z"/><path class="cls-2" d="M1520.42,810.26h10.83v60.87h-10.83Z"/><path class="cls-2" d="M1562.54,810.26h9.38l26.22,60.87h-12.38l-5.68-13.93h-26.39l-5.5,13.93h-12.12Zm13.76,37.66-9.37-24.76-9.54,24.76Z"/><path class="cls-2" d="M1603.21,810.26H1614v51.07h25.88v9.8h-36.71Z"/><path class="cls-2" d="M1645.85,810.26h10.83v60.87h-10.83Z"/><path class="cls-2" d="M1680.76,820.06H1662.1v-9.8h48.14v9.8h-18.65v51.07h-10.83Z"/><path class="cls-2" d="M1730.79,845.08l-22.86-34.82h13.58l15,24.25,15.13-24.25h12.89l-22.86,34.82v26h-10.84Z"/></svg>