<svg id="Layer_1" data-name="Layer 1" xmlns="http://www.w3.org/2000/svg" viewBox="0 0 1920 1080"><defs><style>.cls-1{fill:#231f20;}</style></defs><path class="cls-1" d="M96.65,544.43h26.08s-14.25,61.28,69.48,61.28c77.61,0,70.53-49,70.53-61.28,0-12.89-5.18-45.76-73.76-45.76-49.19,0-92.33-28.61-92.33-69.25s23.84-75.51,97.56-75.51c90,0,90,74.95,90,74.95H257s9.76-53.69-63.87-53.69c-64.47,0-71.51,33.65-71.51,51.05,0,25.86,18.65,50.93,68.88,50.93,65.15,0,93.79,37.09,93.79,71.34s-22.68,77.87-93.79,77.87C86.21,626.36,96.65,544.43,96.65,544.43Z"/><path class="cls-1" d="M399.28,430.29c-22.5,0-61,5.6-61,5.6v23.79s19.61-10.47,64.09-10.47,43.79,31.42,43.79,31.42v28.28A318.8,318.8,0,0,0,397.32,505c-26.34,0-80.91.53-80.91,63.62s85.24,57.63,85.24,57.63c33.81,0,63.44-13.82,63.44-13.82v-140S465.09,430.29,399.28,430.29ZM446,597.35s-18.26,8.76-50.84,8.76S340,597,340,566.25,368.74,525,399.28,525s46.72,4,46.72,4Z"/><path class="cls-1" d="M1258.13,544.43h26.12s-14.3,61.28,69.48,61.28c77.6,0,70.53-49,70.53-61.28,0-12.89-5.23-45.76-73.77-45.76-49.19,0-92.36-28.61-92.36-69.25s23.83-75.51,97.59-75.51c90,0,90,74.95,90,74.95h-27.34s9.79-53.69-63.86-53.69c-64.43,0-71.47,33.65-71.47,51.05,0,25.86,18.61,50.93,68.87,50.93,65.12,0,93.8,37.09,93.8,71.34s-22.68,77.87-93.8,77.87C1247.73,626.36,1258.13,544.43,1258.13,544.43Z"/><path class="cls-1" d="M1757.79,430.29c-22.46,0-61,5.6-61,5.6v23.79s19.57-10.47,64.09-10.47,43.74,31.42,43.74,31.42v28.28a317.7,317.7,0,0,0-48.76-3.92c-26.38,0-80.92.53-80.92,63.62s85.25,57.63,85.25,57.63c33.76,0,63.43-13.82,63.43-13.82v-140S1823.64,430.29,1757.79,430.29Zm46.72,167.06s-18.26,8.76-50.81,8.76-55.16-9.13-55.16-39.86S1727.3,525,1757.79,525s46.72,4,46.72,4Z"/><path class="cls-1" d="M743.13,430.29c-22.5,0-61,5.6-61,5.6v23.79s19.55-10.47,64.12-10.47S790,480.63,790,480.63v28.28A317.82,317.82,0,0,0,741.2,505c-26.35,0-81,.53-81,63.62s85.32,57.63,85.32,57.63c33.77,0,63.44-13.82,63.44-13.82v-140S809,430.29,743.13,430.29ZM789.9,597.35s-18.31,8.76-50.87,8.76S683.9,597,683.9,566.25,712.65,525,743.13,525s46.77,4,46.77,4Z"/><polygon class="cls-1" points="525.89 626.36 505.16 626.36 505.16 353.91 525.89 353.91 525.89 522.08 525.89 626.36"/><polygon class="cls-1" points="605.47 429.06 632.37 429.06 548.51 526.44 636.78 626.36 609.53 626.36 525.89 532.23 525.89 522.08 605.47 429.06"/><path class="cls-1" d="M873.81,626.36H850V445.67s40.69-16.86,80.19-16.86,71.42,26.73,71.42,51.49V626.36H979.52l-1.73-145.65s-1.21-32.34-45.34-32.34-58.64,13.34-58.64,13.34Z"/><path class="cls-1" d="M1074.27,453.51H1111v-24h-36.41V383l-18.75,9.1V428h-29.22v25.54h29.06s-2.39,96.71,0,130.38c.6,9.29,4.65,28.29,19.55,34.27,22.06,8.91,40.51,8.08,40.51,8.08l.79-23.64s-21.87-.33-27.73-1.82c-8.12-1.95-14.44-12-14.44-27.89S1074.27,453.51,1074.27,453.51Z"/><rect class="cls-1" x="1149.99" y="429.22" width="17.16" height="197.15"/><path class="cls-1" d="M1158.24,406.18h8.91V378.09H1148s.49,18.55,2,22.48C1151.08,403.67,1158.24,406.18,1158.24,406.18Z"/><path class="cls-1" d="M1473.42,441.46h20.74v29.37h.79c16.18-23.71,45.15-33.89,68.51-33.89,55,0,93.75,39.54,93.75,92.63s-38.77,92.61-93.75,92.61c-23.36,0-52.33-10.17-68.51-33.88h-.79V726.09h-20.74Zm93.88,14.83c-42.54,0-73.69,31.91-73.69,73.28s31.15,73.26,73.69,73.26c42.93,0,69.72-31.89,69.72-73.26S1610.23,456.29,1567.3,456.29Z"/></svg>