<svg id="Layer_1" data-name="Layer 1" xmlns="http://www.w3.org/2000/svg" viewBox="0 0 1920 1080"><defs><style>.cls-1,.cls-2{fill:#231f20;}.cls-1{fill-rule:evenodd;}</style></defs><path class="cls-1" d="M507.75,706.93c-35.89-1-71.34-4.24-103.62-22-38.3-21-57.89-53.28-57.85-97.21,0-7,1.74-11.39,9.91-11.27,5.75.07,7.89,2.24,8.46,7.94,1.05,10.36,1.61,21.07,4.69,30.92,10.84,34.39,36.67,54.17,69.74,63.6,49.82,14.15,100.21,14.5,149.51-3,51.21-18.1,76.09-68.48,59.73-118.62-9-27.48-30-42.76-55.77-51.1-28.19-9.14-57.27-15.54-86-23.21-29-7.74-58.48-14.21-86.88-23.8-31.39-10.66-58.87-28.51-68.46-62.56-13.87-49.16-2.18-105.23,54.7-135.86,22.94-12.35,47.63-18,73.12-20.55,44.05-4.38,87.49-1.56,128.22,17.48,42.73,20,64,54.28,64.39,101.56,0,7.6-3.55,9.8-10,10.27-6.2.46-8.91-2.09-8.94-8.43-.13-54.74-35.12-82.52-74.92-93.85-48.86-13.93-98.23-13.85-146.76,2.08-29.71,9.73-52.82,28.22-61.65,59.33-11.73,41.66-3.59,81.56,39.41,105,24.57,13.38,51.71,18.53,78.34,25.46,38.84,10,78.05,18.8,116,31.29,31.32,10.28,56.31,30.43,64.76,64.47,15.68,63-14.3,118.57-76.8,138.65C564.54,702.05,520.81,707,507.75,706.93Z"/><path class="cls-1" d="M1517.48,508.46V338.25c0-3.12-.36-6.46.64-9.31.52-1.67,3.31-3.24,5.24-3.52,1.1-.14,3.2,2.18,3.77,3.77.69,1.86.27,4.14.27,6.23,0,82.42.16,164.85-.15,247.26-.12,25.21-6,49.24-20.06,70.54-20.61,31.1-50.94,46.49-87.12,49.5-19,1.58-38.7,1.27-57.35-2.13-45.91-8.32-75.71-36-87.66-81.29a167,167,0,0,1,1-90.08c12.93-44.89,49.55-75,96-80.72,25.32-3.07,50.28-2.52,74.7,4.79,26.81,8,48,23.77,62.67,47.89,1.68,2.78,3.57,5.42,5.38,8.12C1515.65,509,1516.58,508.72,1517.48,508.46ZM1398.55,693.78c4.18,0,8.39.08,12.58,0,54.54-1.38,95.19-34.71,103.3-87.48a204.62,204.62,0,0,0,0-60.27c-7.41-49.5-42.15-81.91-92-87.53a229.14,229.14,0,0,0-49.05-.07c-45.82,4.79-79.57,34.2-88.92,77.93a196.25,196.25,0,0,0-4.18,49.82c1.67,36,13.81,67.69,45.42,88.68C1347.65,689.52,1372.5,694.17,1398.55,693.78Z"/><path class="cls-2" d="M1398.56,706.77a204.49,204.49,0,0,1-36.45-3.07c-46.74-8.51-77.92-37.42-90.1-83.58a170.34,170.34,0,0,1,1-91.77c13.09-45.34,50.86-77.14,98.6-83a235.81,235.81,0,0,1,28.05-1.78,164.84,164.84,0,0,1,48,6.73c28,8.4,49.69,25,64.42,49.25.7,1.19,1.5,2.37,2.31,3.59V469.31q0-65.52,0-131.06c0-.63,0-1.29,0-1.92a24.57,24.57,0,0,1,.82-8.39c1.1-3.27,5.27-5.26,7.8-5.64l.55,0c3.14,0,5.85,3.76,6.6,5.82a14.2,14.2,0,0,1,.54,5.74c0,.54-.06,1.05-.06,1.58v66.95c0,59.11.06,120.22-.17,180.36-.11,27.43-7,51.73-20.59,72.21-20.18,30.54-50.29,47.66-89.46,50.93C1412.94,706.46,1405.61,706.77,1398.56,706.77Zm1.07-256.9a220.62,220.62,0,0,0-27.27,1.77c-45.91,5.57-80.78,34.9-93.3,78.45a163.64,163.64,0,0,0-1,88.4c11.68,44.3,40.34,70.87,85.14,79,16.91,3.11,36.19,3.81,56.57,2.13,37.12-3.09,65.62-19.29,84.74-48.14,12.84-19.4,19.42-42.56,19.53-68.79.23-60.09.2-121.2.18-180.31V335.42c0-.63,0-1.23,0-1.87a9.73,9.73,0,0,0-.13-3.25,7.53,7.53,0,0,0-1.12-1.58,4.6,4.6,0,0,0-2,1.31,19.67,19.67,0,0,0-.48,6.19c.05.66.07,1.36.07,2q0,65.55,0,131.06v41.5L1513.4,513l-1.28-1.94c-.58-.84-1.11-1.66-1.73-2.51-1.26-1.84-2.57-3.71-3.75-5.72-13.89-22.88-34.38-38.57-60.84-46.48A158.79,158.79,0,0,0,1399.63,449.87ZM1406.51,697c-1.34,0-2.67,0-4,0l-4,0c-1,0-2,0-2.92,0-28.65,0-52.07-6.37-71.71-19.43-29.56-19.68-44.87-49.52-46.82-91.2a201,201,0,0,1,4.23-50.61c9.57-44.68,44.72-75.51,91.7-80.43a233.91,233.91,0,0,1,49.71.08c51.8,5.83,87.23,39.56,94.81,90.21a208.1,208.1,0,0,1,0,61.24c-8.21,53.31-50,88.68-106.34,90.12C1409.65,697,1408.08,697,1406.51,697Zm-8-6.34h0c1.34,0,2.65,0,4,0,2.84,0,5.65,0,8.48,0,54-1.38,92.42-33.86,100.28-84.79a199.37,199.37,0,0,0,0-59.34c-7.13-47.66-40.5-79.38-89.27-84.89a230.1,230.1,0,0,0-48.39-.08c-44.82,4.74-77,32.92-86.15,75.5a195.51,195.51,0,0,0-4.12,49c1.86,39.58,16.24,67.81,44,86.31,18.58,12.34,40.89,18.36,68.21,18.36.95,0,1.91,0,2.86,0Z"/><path class="cls-1" d="M766,468.67c14-5.71,27.6-12.83,42.06-16.81,27.71-7.68,56.06-7.18,83.95-.17,49.88,12.51,82.19,51.41,84.9,104.15a542.58,542.58,0,0,1-1.6,76.28C972.54,663,953.92,683,925,692.85c-12.8,4.36-26.31,7.81-39.7,9.06-37.68,3.48-75.44,4.79-112.53-5.24-45-12.22-63.47-44.52-51.47-89.53,6.89-25.85,25.82-38.81,50.39-42.8,20.91-3.41,42.33-4.41,63.59-4.8,39.18-.73,78.34-.18,117.51-.2,14.22,0,14.87-.88,12.13-15.1C954.63,490.33,916,458.9,856.64,456.62c-28-1.07-54.34,4-79.62,17.93-3.59,2-7.49,3.34-10.06-.16C765.74,472.56,763.62,469.93,766,468.67ZM881.27,568.8c0,.2-48.28-.39-72.29.94-.23,0-.43,0-.62.06a227.87,227.87,0,0,0-47.72,8.06c-18.58,5.14-28.5,19.12-31,38.23-5.11,38.51,8.85,61.37,46.68,70.69a284.84,284.84,0,0,0,137.93,0c30.43-7.57,49.28-27.09,51.88-59.39,1.27-15.93.93-32,1.78-48,.45-8.42-3.18-10.79-11.15-10.69C931.62,569,906.43,568.8,881.27,568.8Z"/><path class="cls-2" d="M837.4,707.61c-24.41,0-45.82-2.59-65.46-7.92-46.57-12.61-66.15-46.64-53.72-93.39,6.68-24.92,25-40.51,52.93-45.06,22.26-3.65,44.87-4.49,64.07-4.84,14.12-.27,29.45-.39,48.19-.39q16.33,0,32.68.1c10.87,0,21.76.06,32.63.06h4.06c3.18,0,9.13,0,10-1s-.23-6.86-.91-10.34c-10.07-52.6-47.47-82.83-105.32-85-2.32-.12-4.68-.15-7-.15-26.05,0-49.27,5.8-70.94,17.65a16.06,16.06,0,0,1-7.48,2.4,8,8,0,0,1-6.65-3.47l-.3-.46c-1.21-1.69-2.83-4-2.21-6.61a5.11,5.11,0,0,1,2.65-3.29l.29-.11c4.31-1.75,8.69-3.69,12.9-5.56,9.5-4.22,19.3-8.53,29.49-11.35,27.14-7.5,56.18-7.59,85.6-.21,51.85,13,84.5,53,87.23,107.06a545.3,545.3,0,0,1-1.6,76.73c-2.76,30.78-20.88,52.72-52.45,63.44-14.83,5-28,8-40.43,9.17C866.33,706.8,851.44,707.61,837.4,707.61Zm46-145.29c-18.73,0-34,.11-48.08.36-19,.35-41.28,1.19-63.13,4.75-25.71,4.18-41.8,17.82-47.87,40.5-11.58,43.49,5.89,74,49.26,85.69,19.11,5.17,40,7.69,63.81,7.69,13.82,0,28.54-.78,47.6-2.56,11.88-1.08,24.63-4,39-8.88,29-9.83,45.68-29.92,48.21-58A538.81,538.81,0,0,0,973.79,556c-2.61-51.11-33.45-88.95-82.5-101.29-28.38-7.1-56.31-7-82.37.14-9.75,2.73-19.37,7-28.66,11.08-3.82,1.68-7.78,3.45-11.76,5.09.26.41.55.82.74,1.14l.31.4a1.61,1.61,0,0,0,1.51.81,11.44,11.44,0,0,0,4.42-1.59c24.63-13.51,51.07-19.49,81.28-18.31,61.08,2.33,100.6,34.38,111.28,90.16,1.46,7.81,2.18,12.37-.44,15.51s-7.32,3.31-14.82,3.31h-4.06q-16.34,0-32.66-.07T883.41,562.32Zm-38.2,136a290.66,290.66,0,0,1-69.64-8.53c-38.9-9.59-54.47-33.17-49-74.18,2.8-21.46,14.32-35.62,33.25-40.85a232.91,232.91,0,0,1,48.4-8.17l.62,0c15-.82,39-.92,55.8-.92h13.54v0h24.24q10.49.06,21,.06c13,0,23.64-.06,33.33-.22h.55c3.54,0,7.92.4,10.86,3.52,2.23,2.33,3.15,5.66,2.91,10.45-.36,6.74-.51,13.6-.65,20.26-.19,9.14-.37,18.59-1.13,27.9-2.62,32.51-21.4,54-54.28,62.15A289.53,289.53,0,0,1,845.21,698.37ZM864.6,572c-16.74,0-40.64.08-55.48.93h-.57a229.53,229.53,0,0,0-47.09,8c-16.31,4.53-26.25,16.82-28.71,35.6-5,37.71,8.71,58.48,44.31,67.24a281,281,0,0,0,136.42-.05c30.43-7.56,47.08-26.59,49.49-56.57.74-9.11,1-18.47,1.13-27.51.18-6.7.29-13.63.66-20.43.15-2.9-.25-4.85-1.14-5.85s-3.06-1.52-6.33-1.52h-.47c-9.73.14-20.33.18-33.41.18H902.33q-10.5,0-21.06,0v0a9.2,9.2,0,0,1-1.41.08H864.6Z"/><path class="cls-1" d="M1653.14,704c-20.9.24-41.27-2.16-59.71-13.08-19.34-11.44-29.12-28.61-29-51,0-2.23,1.93-6.54,4.68-6.67,2.4-.11,4.19,3.42,4.6,5.48,7.83,35.59,22.09,50.62,58.77,54.14a190.46,190.46,0,0,0,61.09-4.33c28.7-6.83,42.19-29.59,38.88-57.42-2-17-11.43-28.83-26.84-34.55-16.29-6.06-33.36-10-50.19-14.72-17.5-4.85-35.38-8.54-52.5-14.49-21.53-7.55-36.65-21.77-38.52-46.16-2-26.24,6.88-47.46,30.44-60.85,23-13.14,48.43-16,74.07-12.57a152.4,152.4,0,0,1,42.92,12c19.92,9.17,29.7,26.91,31.15,48.63.22,3.2-.81,9.65-4.46,9.94-3.35.24-5.12-5.39-5.41-8.3-2.43-24.57-16.34-39.78-39-46.82-28.07-8.73-56.53-9.06-84.5.7-23.12,8.08-35.47,25.67-35.61,49-.13,22,10.42,37.85,34.59,45.61,25.17,8.11,51.25,13.28,76.83,20.14a185.32,185.32,0,0,1,25.64,9c45.62,19.82,38.13,78.86,8,99.24C1702.12,698.25,1682.57,703.91,1653.14,704Z"/><path class="cls-2" d="M1650.48,707.13c-24.71,0-42.79-4.14-58.63-13.53-20.4-12.07-30.68-30.13-30.58-53.79,0-3.28,2.65-9.57,7.68-9.78h.22c4.3,0,6.89,4.72,7.59,7.94,7.8,35.39,21.91,48.46,56,51.66a188.24,188.24,0,0,0,60.06-4.19c26.1-6.25,39.75-26.44,36.46-54-1.83-15.58-10.44-26.63-24.81-32-12-4.49-24.68-7.86-37-11.14-4.36-1.16-8.68-2.28-13-3.5-6-1.68-12.12-3.23-18.07-4.75-11.45-2.88-23.28-5.87-34.62-9.82-25.15-8.82-38.82-25.25-40.64-48.87-2.24-29,8.51-50.47,32-63.85,21.8-12.43,47.43-16.77,76.11-13a157.06,157.06,0,0,1,43.83,12.28c19.89,9.19,31.31,26.91,32.94,51.26.37,4.92-1.33,12.81-7.36,13.27-5.54.48-8.33-6.49-8.77-11.09-2.21-22.38-14.59-37.2-36.84-44.14-28.13-8.77-56.11-8.54-82.54.68-21.45,7.44-33.33,23.81-33.47,46-.13,21.62,10.44,35.57,32.37,42.64,15.87,5.06,32.39,9.07,48.42,13,9.27,2.27,18.92,4.59,28.32,7.12a188.78,188.78,0,0,1,26,9.2c20,8.68,32,25.2,34,46.56,2.13,22.66-8.38,46.55-25.52,58.16-18.17,12.25-38.4,17.53-67.6,17.6Zm-81.4-70.77a6.53,6.53,0,0,0-1.53,3.49c-.08,21.24,9.17,37.48,27.51,48.37,14.79,8.73,31.89,12.65,55.42,12.65.86,0,1.75,0,2.61,0,27.9-.06,47.06-5,64.12-16.55,15.3-10.36,24.7-31.88,22.79-52.34-1.77-19-12.46-33.67-30.25-41.39a185.29,185.29,0,0,0-25.17-8.88c-9.33-2.51-18.92-4.82-28.16-7.07-16.14-3.93-32.8-8-48.85-13.1-24.55-7.92-36.93-24.25-36.74-48.66.11-25.08,13.52-43.53,37.68-52,27.69-9.63,57.06-9.88,86.5-.74,24.9,7.77,38.73,24.42,41.21,49.52.25,2.57,1.52,5.17,2.19,5.49.55-.4,1.59-3.72,1.4-6.6-1.51-21.94-11.64-37.83-29.33-46a149,149,0,0,0-42-11.75c-27.31-3.64-51.56.46-72.15,12.16-21.18,12.06-30.9,31.55-28.82,57.92,1.59,20.91,13.83,35.5,36.42,43.41,11.1,3.88,22.76,6.84,34.08,9.69,6,1.52,12.16,3.08,18.21,4.77q6.46,1.77,12.89,3.47c12.45,3.33,25.28,6.78,37.57,11.33,16.72,6.2,26.68,19,28.84,37.12,3.64,30.59-12.19,53.91-41.25,60.84a196.1,196.1,0,0,1-62.15,4.42c-37-3.55-53.1-18.36-61.51-56.62A6.34,6.34,0,0,0,1569.08,636.36Z"/><path class="cls-1" d="M1235.85,623.24q0,32.47,0,65a59.48,59.48,0,0,1-.36,7.22c-.3,2.26-.59,5.17-5.23,5.17-3,0-3.54-3.18-3.85-5.18a49,49,0,0,1-.23-7.3c0-37,.61-74.08-.31-111.06-.42-16.61-2.07-33.62-6.23-49.68-12.24-47.28-51.85-74.28-100.76-70.31-53.09,4.28-87.37,36.8-90.74,90.61-2.81,45.94-1.61,92.1-2.53,138.16-.11,5.09,3.53,13.9-5.75,14-3.52,0-3.77-8.77-3.81-13.55-.35-37-1.11-74.07.2-111,.72-19.32,2.92-39.32,8.81-57.64,17.42-54.39,63.12-75.12,114.67-70.22,64.39,6.13,92.18,55.74,95.59,109.86,1.41,21.92.22,44,.22,66Z"/><path class="cls-2" d="M1230.24,703.76c-5.74,0-6.66-5.93-7-7.85a38.88,38.88,0,0,1-.27-6.28v-1.5c0-10.81.06-21.62.12-32.42.09-25.76.22-52.43-.41-78.58-.45-18.71-2.47-34.74-6.12-49-10.9-42.16-44.77-68.33-88.36-68.33-3,0-6.09.14-9.14.36-52.59,4.26-84.61,36.21-87.79,87.68-1.84,29.91-2,60.47-2.09,90-.09,15.76-.17,32-.48,48.07a27.46,27.46,0,0,0,.27,3.27c.42,3.54.92,7.87-1.73,10.95-1.65,1.86-4.12,2.83-7.37,2.84-6.85,0-7-10.84-7-16.69-.05-6-.11-12.12-.18-18.19-.33-30.49-.71-62,.43-93,.83-23.26,3.75-42.38,8.91-58.47,15.12-47.17,51.78-73.11,103.3-73.11,4.78,0,9.74.23,14.69.72,57.53,5.46,94.33,47.63,98.46,112.78,1,15.2.7,30.63.45,45.58-.1,5.76-.17,11.65-.21,17.47h.26v68.13a57,57,0,0,1-.4,7.63C1238.28,698.07,1237.59,703.76,1230.24,703.76Zm-102-250.21c46.6,0,82.8,28,94.45,73.05,3.81,14.69,5.85,31.16,6.31,50.4.67,26.24.56,52.94.42,78.73q-.09,16.2-.09,32.4v1.58a31.29,31.29,0,0,0,.16,5.21,7.6,7.6,0,0,0,.76,2.62v-.06c1.76,0,1.8-.08,2.08-2.31a56.62,56.62,0,0,0,.35-6.95V626.37h-.28v-3.13c0-6.91.11-13.92.21-20.75.28-14.81.51-30.11-.41-45-1.91-29.69-14.69-99.52-92.78-107-4.78-.44-9.52-.68-14.1-.68-48.54,0-83.08,24.42-97.28,68.76-5,15.53-7.79,34.09-8.66,56.79-1.1,30.84-.75,62.27-.41,92.7.07,6,.15,12.14.19,18.2.09,7.2.85,9.65,1.24,10.44a3.52,3.52,0,0,0,2.13-.66c.81-1,.49-3.94.21-6.09a35,35,0,0,1-.32-4.14c.34-16,.42-32.24.48-48,.14-29.63.26-60.28,2.15-90.34,3.34-54.14,38.3-89.09,93.54-93.58C1121.8,453.68,1125.05,453.55,1128.23,453.55Z"/><path class="cls-2" d="M346,776.54h22.18l21.37,82h.32l25.56-82h19.92l25.07,82h.33l22.33-82h20.57l-33.1,113.78H451.24L424.89,803.7h-.32l-26.36,86.62H379.57Z"/><path class="cls-2" d="M553.14,776.54h20.25V890.32H553.14Z"/><path class="cls-2" d="M635.58,776.54h26.84l55.12,84.54h.32V776.54h20.25V890.32H712.4l-56.25-87.26h-.32v87.26H635.58Z"/><path class="cls-2" d="M800.79,776.54h75.37v18.32H821v28h52.23v18.32H821V872h58v18.32H800.79Z"/><path class="cls-2" d="M1100.68,863.49l24.59,26.83h-24.91l-12.06-13c-9.16,10.76-19.12,15.91-33.58,15.91-20.09,0-38.57-11.74-38.57-33.43,0-15.27,10.92-26.68,24.58-32-7.23-8-13-14.95-13-26.2,0-18.64,15.42-28,32.62-28,17,0,32.14,8.36,32.14,27,0,14-11.41,23.62-22.66,29.41l18.32,19.77,12.7-19.29h22.66ZM1053,839.22c-7.56,4.5-15.59,9.64-15.59,19.44,0,10,8.36,17.2,18,17.2,8.84,0,15.1-5.62,20.89-11.25Zm-6-36.8c0,5.94,5.79,11.89,10.77,16.55,6.59-3.54,15.43-9,15.43-17.36,0-6.1-5.63-10.6-12.54-10.6C1053.27,791,1047,795.67,1047,802.42Z"/><path class="cls-2" d="M1262.35,776.54h44.84c29.89,0,57.86,18.32,57.86,56.89,0,38.89-33,56.89-60.27,56.89h-42.43ZM1297.71,872c25.39,0,46.12-10.92,46.12-38.57s-18-38.57-42.75-38.57H1282.6V872Z"/><path class="cls-2" d="M1421.14,776.54h20.25V890.32h-20.25Z"/><path class="cls-2" d="M1503.58,776.54h26.84l55.12,84.54h.32V776.54h20.25V890.32H1580.4l-56.25-87.26h-.32v87.26h-20.25Z"/><path class="cls-2" d="M1668.79,776.54h75.37v18.32H1689v28h52.23v18.32H1689V872h58v18.32h-78.27Z"/></svg>